<svg xmlns="http://www.w3.org/2000/svg" version="1.1" xmlns:xlink="http://www.w3.org/1999/xlink" xmlns:svgjs="http://svgjs.com/svgjs" width="1600" height="4000" preserveAspectRatio="none" viewBox="0 0 1600 4000"><g mask="url(&quot;#SvgjsMask19698&quot;)" fill="none"><rect width="1600" height="4000" x="0" y="0" fill="rgba(226, 255, 253, 1)"></rect><path d="M489.94 2236.01L487.78 2223.38 499.63 2218.51 497.47 2205.89 509.31 2201.01 507.16 2188.39 519 2183.52M496.94 2239.88L494.78 2227.26 506.62 2222.39 504.47 2209.76 516.31 2204.89 514.16 2192.26 526 2187.39" stroke="#e73635" stroke-width="2.87" stroke-dasharray="3, 2"></path><rect width="485.15999999999997" height="485.15999999999997" clip-path="url(&quot;#SvgjsClipPath19699&quot;)" x="225.19" y="1798.04" fill="url(#SvgjsPattern19700)" transform="rotate(106.05, 467.77, 2040.62)"></rect><rect width="944.72" height="944.72" clip-path="url(&quot;#SvgjsClipPath19701&quot;)" x="229.56" y="781.68" fill="url(#SvgjsPattern19702)" transform="rotate(103.43, 701.92, 1254.04)"></rect><path d="M811.46 3515.96L804.79 3505.03 813.99 3496.12 807.32 3485.19 816.52 3476.28 809.85 3465.35 819.04 3456.44M819.4 3516.97L812.73 3506.04 821.93 3497.13 815.25 3486.2 824.45 3477.29 817.78 3466.36 826.98 3457.45M827.33 3517.98L820.66 3507.05 829.86 3498.14 823.19 3487.21 832.39 3478.31 825.72 3467.37 834.92 3458.47" stroke="#d3b714" stroke-width="2.6" stroke-dasharray="3, 3"></path><rect width="468" height="468" clip-path="url(&quot;#SvgjsClipPath19703&quot;)" x="1068.6" y="-122.11" fill="url(#SvgjsPattern19704)" transform="rotate(291.1, 1302.6, 111.89)"></rect><rect width="958" height="958" clip-path="url(&quot;#SvgjsClipPath19705&quot;)" x="685.52" y="124.79" fill="url(#SvgjsPattern19706)" transform="rotate(0.4, 1164.52, 603.79)"></rect><path d="M313.18 1286.47L304.51 1295.9 293.41 1289.52 284.75 1298.95 273.64 1292.57 264.98 1302 253.88 1295.62M311.96 1278.56L303.29 1288 292.19 1281.61 283.53 1291.04 272.42 1284.66 263.76 1294.09 252.66 1287.71M310.74 1270.66L302.07 1280.09 290.97 1273.71 282.31 1283.14 271.2 1276.76 262.54 1286.19 251.44 1279.81" stroke="#037b0b" stroke-width="1.22" stroke-dasharray="3, 3"></path><rect width="468" height="468" clip-path="url(&quot;#SvgjsClipPath19707&quot;)" x="786.46" y="1523.75" fill="url(#SvgjsPattern19708)" transform="rotate(266.15, 1020.46, 1757.75)"></rect><path d="M1078.0800000000002 481.89 L1189.89 734.05L969.276504270697 772.6784957293031z" fill="#d3b714"></path><circle r="133.33333333333334" cx="585.36" cy="2016.36" fill="#d3b714"></circle><rect width="392.96" height="392.96" clip-path="url(&quot;#SvgjsClipPath19709&quot;)" x="183.44" y="1097.11" fill="url(#SvgjsPattern19710)" transform="rotate(266.03, 379.92, 1293.59)"></rect><rect width="708" height="708" clip-path="url(&quot;#SvgjsClipPath19711&quot;)" x="-73.78" y="1203.13" fill="url(#SvgjsPattern19712)" transform="rotate(344.28, 280.22, 1557.13)"></rect></g><defs><mask id="SvgjsMask19698"><rect width="1600" height="4000" fill="#ffffff"></rect></mask><pattern x="0" y="0" width="6.22" height="6.22" patternUnits="userSpaceOnUse" id="SvgjsPattern19700"><path d="M0 6.22L3.11 0L6.22 6.22" stroke="#e73635" fill="none"></path></pattern><clipPath id="SvgjsClipPath19699"><circle r="121.28999999999999" cx="467.77" cy="2040.62"></circle></clipPath><pattern x="0" y="0" width="9.64" height="9.64" patternUnits="userSpaceOnUse" id="SvgjsPattern19702"><path d="M4.82 1L4.82 8.64M1 4.82L8.64 4.82" stroke="#037b0b" fill="none" stroke-width="1.14"></path></pattern><clipPath id="SvgjsClipPath19701"><circle r="236.18" cx="701.92" cy="1254.04"></circle></clipPath><pattern x="0" y="0" width="6" height="6" patternUnits="userSpaceOnUse" id="SvgjsPattern19704"><path d="M0 6L3 0L6 6" stroke="#d3b714" fill="none"></path></pattern><clipPath id="SvgjsClipPath19703"><circle r="117" cx="1302.6" cy="111.89"></circle></clipPath><pattern x="0" y="0" width="9.58" height="9.58" patternUnits="userSpaceOnUse" id="SvgjsPattern19706"><path d="M4.79 1L4.79 8.58M1 4.79L8.58 4.79" stroke="#e73635" fill="none" stroke-width="1.26"></path></pattern><clipPath id="SvgjsClipPath19705"><circle r="239.5" cx="1164.52" cy="603.79"></circle></clipPath><pattern x="0" y="0" width="468" height="6" patternUnits="userSpaceOnUse" id="SvgjsPattern19708"><rect width="468" height="3" x="0" y="0" fill="#d3b714"></rect><rect width="468" height="3" x="0" y="3" fill="rgba(0, 0, 0, 0)"></rect></pattern><clipPath id="SvgjsClipPath19707"><circle r="117" cx="1020.46" cy="1757.75"></circle></clipPath><pattern x="0" y="0" width="6.14" height="6.14" patternUnits="userSpaceOnUse" id="SvgjsPattern19710"><path d="M0 6.14L3.07 0L6.14 6.14" stroke="#d3b714" fill="none"></path></pattern><clipPath id="SvgjsClipPath19709"><circle r="98.24" cx="379.92" cy="1293.59"></circle></clipPath><pattern x="0" y="0" width="6" height="6" patternUnits="userSpaceOnUse" id="SvgjsPattern19712"><path d="M3 1L3 5M1 3L5 3" stroke="#d3b714" fill="none" stroke-width="1"></path></pattern><clipPath id="SvgjsClipPath19711"><circle r="177" cx="280.22" cy="1557.13"></circle></clipPath></defs></svg>